<svg width="22" height="16" viewBox="0 0 22 16" fill="none" xmlns="http://www.w3.org/2000/svg">
<path d="M1.78654 15.4806C0.0258429 15.4806 1.75796 13.694 1.75796 13.694L6.2469 8.76071C6.6835 8.28107 7.52601 7.5528 8.01861 7.95455C8.51114 8.35623 9.16894 9.17024 9.62706 9.62951L10.5554 10.5586C11.053 10.9991 11.4359 10.5586 11.4359 10.5586L12.3858 9.62288C12.8478 9.1675 13.5095 8.37307 14.0028 8.0035C14.4961 7.63392 15.3351 8.33672 15.7705 8.81751L20.2332 13.7485C21.9947 15.4806 20.2618 15.4806 20.2618 15.4806H1.78654V15.4806ZM2.5485 11.4219C2.11191 11.9019 1.47412 12.7366 1.04307 13.2214C0.556376 13.7684 0 14.1837 0 13.2257L0.0211637 3.60137C0.0227474 2.95256 0.00475104 1.71535 0.447966 1.93735C0.612813 2.01999 0.838343 2.19182 1.1445 2.4984L4.77717 5.47054C5.27913 5.88129 5.9866 6.38397 6.21804 6.71877C6.3641 6.92983 6.43104 7.1753 6.21962 7.38752L2.5485 11.4219ZM12.34 8.00263C11.8385 8.4141 11.2934 8.9979 11.015 8.9987C10.7366 8.99906 10.1814 8.42864 9.67752 8.01984L1.77329 1.60809C1.26939 1.19971 0.401391 0.377135 0.832801 0.156643C1.14443 -0.00273252 1.68907 3.0132e-06 1.68907 3.0132e-06H20.2634C21.9356 3.0132e-06 21.0853 0.825749 21.0853 0.825749L12.34 8.00263ZM20.9557 13.2214C20.5239 12.737 19.8856 11.9019 19.4495 11.4219L15.7804 7.38708C15.5679 7.17487 15.6344 6.9294 15.7804 6.71834C16.0118 6.38361 16.7197 5.88122 17.2221 5.47054L19.9464 3.24194C20.4484 2.83119 21.1085 2.15935 21.5513 1.93735C21.9942 1.71535 21.9749 2.95299 21.9765 3.60137L22 13.2257C22.0003 14.1837 21.4431 13.7684 20.9557 13.2214Z" fill="white"/>
</svg>
