<svg width="96" height="97" viewBox="0 0 96 97" fill="none" xmlns="http://www.w3.org/2000/svg">
<path d="M93.3113 69.249L54.9633 65.3001C55.4856 65.0621 55.9286 64.6791 56.2397 64.1967C56.5507 63.7143 56.7168 63.1528 56.718 62.5788V41.0578C57.2641 40.6389 57.7066 40.1 58.0112 39.4828C58.3159 38.8657 58.4746 38.1867 58.4751 37.4985V23.9626L72.1026 27.8605C72.4873 27.9705 72.8901 28.0024 73.2873 27.9544C73.6845 27.9063 74.0681 27.7793 74.4155 27.5807C74.7629 27.3822 75.0671 27.1162 75.3101 26.7983C75.5531 26.4805 75.7301 26.1172 75.8306 25.7299L76.3909 23.5751C76.5908 22.8185 76.4857 22.0136 76.098 21.3337C75.7103 20.6538 75.0712 20.1534 74.3181 19.9401L58.2063 15.2921C57.8003 15.1792 57.3854 15.1006 56.9662 15.0574C56.0568 16.2497 54.9195 17.2495 53.6203 17.9984H56.127C56.549 17.9983 56.9689 18.0578 57.3743 18.175L73.4869 22.8222L72.9273 24.9762L57.3875 20.5312C57.1642 20.4674 56.9292 20.4563 56.701 20.4987C56.4727 20.5412 56.2574 20.636 56.072 20.7758C55.8867 20.9156 55.7363 21.0966 55.6327 21.3044C55.5291 21.5122 55.4752 21.7412 55.4751 21.9733V37.4985C55.4746 37.8961 55.3164 38.2773 55.0352 38.5585C54.754 38.8397 54.3728 38.9979 53.9751 38.9985H41.9751C41.5775 38.9979 41.1962 38.8397 40.915 38.5585C40.6339 38.2773 40.4757 37.8961 40.4751 37.4985V21.4181C40.475 21.0203 40.3169 20.6389 40.0356 20.3576C39.7544 20.0764 39.3729 19.9183 38.9751 19.9181C38.8238 19.9179 38.6734 19.9409 38.5291 19.9862L23.1621 24.7704L22.6267 23.3525L38.5364 18.2159C38.9835 18.0719 39.4503 17.9985 39.92 17.9984H42.4427C41.1409 17.2478 40.0015 16.2455 39.0912 15.0498C38.5902 15.1036 38.0958 15.2078 37.6158 15.361L21.7053 20.4974C21.3187 20.6222 20.9615 20.8242 20.6553 21.0911C20.349 21.3581 20.1002 21.6845 19.924 22.0505C19.7477 22.4165 19.6476 22.8145 19.6297 23.2203C19.6118 23.6262 19.6766 24.0314 19.8201 24.4115L20.3548 25.828C20.6247 26.5442 21.158 27.1301 21.8457 27.466C22.5334 27.8019 23.3235 27.8623 24.0542 27.6349L37.4751 23.4565V37.4985C37.4751 38.5785 37.8656 39.6221 38.5745 40.4369L36.2315 50.663C36.1063 51.2121 36.0429 51.7734 36.0425 52.3366V61.4985C36.0454 62.2062 36.3008 62.8896 36.7627 63.4259L3.63503 60.0146C2.85298 59.9303 2.06915 60.1568 1.45249 60.6451C0.835826 61.1334 0.435719 61.8444 0.338404 62.625L0.0183343 65.4968C-0.0249095 65.879 0.00852815 66.266 0.11669 66.6351C0.224851 67.0042 0.405563 67.348 0.648244 67.6464C0.89803 67.9565 1.20715 68.2136 1.55752 68.4027C1.90789 68.5919 2.29246 68.7093 2.68874 68.748L40.9241 72.6852C38.7491 74.149 37.0777 76.2474 36.1375 78.6948C35.1973 81.1422 35.034 83.8198 35.6696 86.3634C36.3052 88.9069 37.709 91.1929 39.6899 92.9104C41.6709 94.6278 44.1328 95.6933 46.7408 95.9618C49.3488 96.2304 51.9762 95.689 54.2655 94.4113C56.5549 93.1336 58.3951 91.1816 59.5357 88.821C60.6763 86.4603 61.062 83.8056 60.6403 81.2179C60.2186 78.6303 59.01 76.2354 57.1788 74.359L92.365 77.9823C92.4697 77.9931 92.5748 77.9985 92.68 77.9984C93.4126 78.0024 94.1211 77.7371 94.6708 77.2528C95.2206 76.7686 95.5732 76.0992 95.6617 75.3719L95.9817 72.5001C96.025 72.1179 95.9916 71.7309 95.8834 71.3618C95.7752 70.9927 95.5945 70.6489 95.3518 70.3504C95.1021 70.0404 94.7929 69.7833 94.4426 69.5941C94.0922 69.405 93.7076 69.2877 93.3113 69.249ZM48.0564 92.9985C46.1281 92.9985 44.243 92.4266 42.6396 91.3553C41.0362 90.2839 39.7866 88.7612 39.0486 86.9796C38.3106 85.198 38.1176 83.2376 38.4938 81.3463C38.87 79.455 39.7986 77.7177 41.1621 76.3542C42.5257 74.9906 44.263 74.062 46.1543 73.6858C48.0456 73.3096 50.006 73.5027 51.7876 74.2406C53.5692 74.9786 55.0919 76.2283 56.1633 77.8316C57.2346 79.435 57.8064 81.3201 57.8064 83.2485C57.8034 85.8334 56.7753 88.3116 54.9474 90.1395C53.1196 91.9673 50.6414 92.9955 48.0564 92.9985ZM50.9751 41.9984H53.7182L53.7202 62.5788H50.9751V41.9984ZM44.2171 41.9984L41.97 52.0011C41.8491 52.5404 41.7879 53.0913 41.7876 53.644V61.4985H39.0425V52.3366C39.0427 51.9984 39.0807 51.6614 39.156 51.3317L41.3073 41.9433C41.5282 41.9783 41.7515 41.9967 41.9751 41.9984H44.2171ZM44.7876 61.4985V53.644C44.7877 53.3123 44.8243 52.9817 44.8968 52.6581L47.2913 41.9984H47.9751V62.5788C47.9755 63.3602 48.2821 64.1104 48.8292 64.6684L43.2621 64.0952C43.7234 63.836 44.1077 63.4591 44.3757 63.0029C44.6437 62.5467 44.7859 62.0276 44.7876 61.4985ZM92.7005 74.9933C92.699 74.9948 92.6924 74.9985 92.6726 74.9985L49.4585 70.5798C49.3922 70.5725 49.326 70.5657 49.2595 70.5594L2.99929 65.8293L3.32742 62.9985L93.0008 72.1677L92.7005 74.9933Z" fill="#0C1315"/>
<path d="M39.7817 8.24902C39.7817 9.88072 40.2656 11.4758 41.1721 12.8325C42.0786 14.1892 43.3671 15.2466 44.8746 15.871C46.3821 16.4955 48.0409 16.6588 49.6412 16.3405C51.2416 16.0222 52.7116 15.2364 53.8654 14.0827C55.0192 12.9289 55.8049 11.4589 56.1232 9.85852C56.4415 8.25818 56.2782 6.59938 55.6537 5.09189C55.0293 3.5844 53.9719 2.29592 52.6152 1.3894C51.2585 0.482878 49.6634 -0.000976563 48.0317 -0.000976562C45.8445 0.00149484 43.7475 0.871482 42.2008 2.41812C40.6542 3.96476 39.7842 6.06175 39.7817 8.24902ZM53.2817 8.24902C53.2817 9.28738 52.9738 10.3024 52.397 11.1658C51.8201 12.0291 51.0001 12.702 50.0408 13.0994C49.0815 13.4968 48.0259 13.6007 47.0075 13.3981C45.9891 13.1956 45.0537 12.6956 44.3194 11.9613C43.5852 11.2271 43.0852 10.2916 42.8826 9.27325C42.68 8.25485 42.784 7.19925 43.1814 6.23994C43.5787 5.28062 44.2516 4.46069 45.115 3.88381C45.9784 3.30693 46.9934 2.99902 48.0317 2.99902C49.4236 3.00071 50.758 3.55437 51.7422 4.53857C52.7264 5.52278 53.2801 6.85716 53.2817 8.24902Z" fill="#0C1315"/>
</svg>
