<svg width="96" height="96" viewBox="0 0 96 96" fill="none" xmlns="http://www.w3.org/2000/svg">
<path d="M63.1125 12.6754H70.05C73.2 12.6754 75.9 15.2629 75.9 18.4129V38.8129V39.6379V43.0879H79.725V41.8504V38.8129V18.4129C79.725 13.1254 75.3375 8.85039 70.05 8.85039H63.1125C62.0625 8.85039 61.2 9.71289 61.2 10.7629C61.2 11.8129 62.025 12.6754 63.1125 12.6754ZM18.525 24.3004C18.525 26.6629 20.6625 28.8004 23.025 28.8004H60.5625C62.925 28.8004 65.0625 26.6629 65.0625 24.3004C65.0625 21.9379 62.925 20.0254 60.5625 20.0254H53.2125V10.7254C53.2125 6.93789 50.175 3.90039 46.3875 3.90039H37.1625C33.375 3.90039 30.3375 6.93789 30.3375 10.7254V20.0254H22.9875C20.625 20.0254 18.525 21.9379 18.525 24.3004ZM41.775 7.72539C44.25 7.72539 46.3125 9.75039 46.3125 12.2629C46.3125 14.7754 44.2875 16.8004 41.775 16.8004C39.3 16.8004 37.2375 14.7754 37.2375 12.2629C37.2375 9.78789 39.2625 7.72539 41.775 7.72539ZM46.0125 37.5754H45.7125H22.575C20.2125 37.5754 18.3 39.4879 18.3 41.8504C18.3 44.2129 20.2125 46.1254 22.575 46.1254H39.15C42 44.4754 40.05 38.9254 46.0125 37.5754ZM59.5125 47.5879H46.8375H45.1875L44.85 49.2004L42.45 60.2254H46.6125L48.45 51.6754H59.5125H72.6H83.6625L85.5 60.2254H89.6625L87.2625 49.2004L86.925 47.5879H85.275H72.5625H59.5125ZM89.85 62.2504L89.625 61.3129H85.5H67.7625H64.5375H46.6125H42.45L42.225 62.2879L40.0125 67.6879V83.8879H41.9625V92.1004H52.0875V83.8879H80.25V92.1004H90.375V83.8879H92.2125V67.6879L89.85 62.2504ZM47.1 75.9004C45 75.9004 43.275 74.1754 43.275 72.0754C43.275 69.9754 45 68.2504 47.1 68.2504C49.2 68.2504 50.925 69.9754 50.925 72.0754C50.925 74.1754 49.2375 75.9004 47.1 75.9004ZM66.15 67.3504L66.225 67.6879H66.0375L66.15 67.3504ZM76.4625 78.8254H55.575V70.3504H76.4625V78.8254ZM84.375 75.9004C82.275 75.9004 80.55 74.1754 80.55 72.0754C80.55 69.9754 82.275 68.2504 84.375 68.2504C86.475 68.2504 88.2 69.9754 88.2 72.0754C88.2 74.1754 86.475 75.9004 84.375 75.9004ZM7.575 82.5754V18.8254C7.575 15.6379 10.35 12.6754 13.5 12.6754H20.5125C21.5625 12.6754 22.425 11.8129 22.425 10.7629C22.425 9.71289 21.5625 8.85039 20.5125 8.85039H13.5C8.2125 8.85039 3.75 13.5379 3.75 18.8254V82.5379C3.75 87.8254 8.025 92.1004 13.3125 92.1004H36.9V88.3129H13.3125C10.1625 88.3129 7.575 85.7254 7.575 82.5754Z" fill="#0C1315"/>
</svg>
